<svg width="64" height="64" viewBox="0 0 64 64" xmlns="http://www.w3.org/2000/svg">
  <defs>
    <linearGradient id="iconGradient" x1="0%" y1="0%" x2="100%" y2="100%">
      <stop offset="0%" style="stop-color:#1890ff;stop-opacity:1" />
      <stop offset="100%" style="stop-color:#722ed1;stop-opacity:1" />
    </linearGradient>
    
    <linearGradient id="accentGradient" x1="0%" y1="0%" x2="100%" y2="100%">
      <stop offset="0%" style="stop-color:#52c41a;stop-opacity:1" />
      <stop offset="100%" style="stop-color:#1890ff;stop-opacity:1" />
    </linearGradient>
    
    <filter id="iconGlow">
      <feGaussianBlur stdDeviation="1.5" result="coloredBlur"/>
      <feMerge> 
        <feMergeNode in="coloredBlur"/>
        <feMergeNode in="SourceGraphic"/>
      </feMerge>
    </filter>
  </defs>
  
  <!-- Background circle -->
  <circle cx="32" cy="32" r="30" fill="#141414" stroke="url(#iconGradient)" stroke-width="2"/>
  
  <!-- Nova star -->
  <g transform="translate(32,32)" filter="url(#iconGlow)">
    <!-- Central core -->
    <circle cx="0" cy="0" r="4" fill="url(#iconGradient)"/>
    
    <!-- Main rays -->
    <path d="M 0,-16 L 1.5,-4 L 0,-3 L -1.5,-4 Z" fill="url(#iconGradient)" transform="rotate(0)"/>
    <path d="M 0,-16 L 1.5,-4 L 0,-3 L -1.5,-4 Z" fill="url(#iconGradient)" transform="rotate(90)"/>
    <path d="M 0,-16 L 1.5,-4 L 0,-3 L -1.5,-4 Z" fill="url(#iconGradient)" transform="rotate(180)"/>
    <path d="M 0,-16 L 1.5,-4 L 0,-3 L -1.5,-4 Z" fill="url(#iconGradient)" transform="rotate(270)"/>
    
    <!-- Secondary rays -->
    <path d="M 0,-12 L 1,-4 L 0,-3.5 L -1,-4 Z" fill="url(#accentGradient)" transform="rotate(45)"/>
    <path d="M 0,-12 L 1,-4 L 0,-3.5 L -1,-4 Z" fill="url(#accentGradient)" transform="rotate(135)"/>
    <path d="M 0,-12 L 1,-4 L 0,-3.5 L -1,-4 Z" fill="url(#accentGradient)" transform="rotate(225)"/>
    <path d="M 0,-12 L 1,-4 L 0,-3.5 L -1,-4 Z" fill="url(#accentGradient)" transform="rotate(315)"/>
  </g>
  
  <!-- Editor elements -->
  <g opacity="0.6">
    <!-- Small panels -->
    <rect x="12" y="12" width="6" height="4" fill="url(#accentGradient)" rx="1"/>
    <rect x="46" y="12" width="6" height="4" fill="url(#accentGradient)" rx="1"/>
    <rect x="12" y="48" width="6" height="4" fill="url(#accentGradient)" rx="1"/>
    <rect x="46" y="48" width="6" height="4" fill="url(#accentGradient)" rx="1"/>
    
    <!-- Connection lines -->
    <line x1="18" y1="14" x2="26" y2="26" stroke="url(#iconGradient)" stroke-width="1" opacity="0.5"/>
    <line x1="46" y1="14" x2="38" y2="26" stroke="url(#iconGradient)" stroke-width="1" opacity="0.5"/>
    <line x1="18" y1="50" x2="26" y2="38" stroke="url(#iconGradient)" stroke-width="1" opacity="0.5"/>
    <line x1="46" y1="50" x2="38" y2="38" stroke="url(#iconGradient)" stroke-width="1" opacity="0.5"/>
  </g>
</svg>
