<svg width="240" height="80" viewBox="0 0 240 80" xmlns="http://www.w3.org/2000/svg">
  <defs>
    <!-- Gradients -->
    <linearGradient id="primaryGrad" x1="0%" y1="0%" x2="100%" y2="100%">
      <stop offset="0%" style="stop-color:#1890ff;stop-opacity:1" />
      <stop offset="100%" style="stop-color:#722ed1;stop-opacity:1" />
    </linearGradient>
    
    <linearGradient id="secondaryGrad" x1="0%" y1="0%" x2="100%" y2="100%">
      <stop offset="0%" style="stop-color:#52c41a;stop-opacity:1" />
      <stop offset="100%" style="stop-color:#1890ff;stop-opacity:1" />
    </linearGradient>
    
    <linearGradient id="textGrad" x1="0%" y1="0%" x2="100%" y2="0%">
      <stop offset="0%" style="stop-color:#ffffff;stop-opacity:1" />
      <stop offset="100%" style="stop-color:#e6f7ff;stop-opacity:1" />
    </linearGradient>
    
    <!-- Effects -->
    <filter id="glow" x="-50%" y="-50%" width="200%" height="200%">
      <feGaussianBlur stdDeviation="2" result="coloredBlur"/>
      <feMerge> 
        <feMergeNode in="coloredBlur"/>
        <feMergeNode in="SourceGraphic"/>
      </feMerge>
    </filter>
    
    <filter id="textShadow">
      <feDropShadow dx="1" dy="2" stdDeviation="2" flood-color="#000000" flood-opacity="0.4"/>
    </filter>
  </defs>
  
  <!-- Background -->
  <rect width="240" height="80" rx="12" fill="#141414" stroke="url(#primaryGrad)" stroke-width="2"/>
  
  <!-- Nova star icon -->
  <g transform="translate(40,40)" filter="url(#glow)">
    <!-- Central core -->
    <circle cx="0" cy="0" r="6" fill="url(#primaryGrad)"/>
    
    <!-- Main star rays -->
    <path d="M 0,-20 L 2,-6 L 0,-4 L -2,-6 Z" fill="url(#primaryGrad)" transform="rotate(0)"/>
    <path d="M 0,-20 L 2,-6 L 0,-4 L -2,-6 Z" fill="url(#primaryGrad)" transform="rotate(90)"/>
    <path d="M 0,-20 L 2,-6 L 0,-4 L -2,-6 Z" fill="url(#primaryGrad)" transform="rotate(180)"/>
    <path d="M 0,-20 L 2,-6 L 0,-4 L -2,-6 Z" fill="url(#primaryGrad)" transform="rotate(270)"/>
    
    <!-- Secondary rays -->
    <path d="M 0,-14 L 1.5,-6 L 0,-5 L -1.5,-6 Z" fill="url(#secondaryGrad)" transform="rotate(45)"/>
    <path d="M 0,-14 L 1.5,-6 L 0,-5 L -1.5,-6 Z" fill="url(#secondaryGrad)" transform="rotate(135)"/>
    <path d="M 0,-14 L 1.5,-6 L 0,-5 L -1.5,-6 Z" fill="url(#secondaryGrad)" transform="rotate(225)"/>
    <path d="M 0,-14 L 1.5,-6 L 0,-5 L -1.5,-6 Z" fill="url(#secondaryGrad)" transform="rotate(315)"/>
  </g>
  
  <!-- Editor icon elements -->
  <g transform="translate(65,25)" opacity="0.8">
    <!-- Panel representation -->
    <rect x="0" y="0" width="12" height="8" fill="url(#secondaryGrad)" rx="1"/>
    <rect x="0" y="10" width="12" height="8" fill="url(#primaryGrad)" rx="1"/>
    <rect x="0" y="20" width="12" height="8" fill="url(#secondaryGrad)" rx="1"/>
    
    <!-- Connection lines -->
    <line x1="14" y1="4" x2="20" y2="4" stroke="url(#primaryGrad)" stroke-width="1"/>
    <line x1="14" y1="14" x2="20" y2="14" stroke="url(#primaryGrad)" stroke-width="1"/>
    <line x1="14" y1="24" x2="20" y2="24" stroke="url(#primaryGrad)" stroke-width="1"/>
    
    <!-- Viewport representation -->
    <rect x="22" y="8" width="16" height="12" fill="none" stroke="url(#primaryGrad)" stroke-width="1.5" rx="2"/>
    <circle cx="30" cy="14" r="2" fill="url(#secondaryGrad)"/>
  </g>
  
  <!-- Text -->
  <g font-family="Arial, sans-serif" font-weight="bold" fill="url(#textGrad)" filter="url(#textShadow)">
    <!-- Nova -->
    <text x="110" y="35" font-size="24">Nova</text>
    <!-- Editor -->
    <text x="110" y="55" font-size="16" opacity="0.9">Editor</text>
  </g>
  
  <!-- Subtitle -->
  <text x="110" y="68" font-family="Arial, sans-serif" font-size="8" fill="#a0a0a0">Visual ECS Game Editor</text>
  
  <!-- Version badge -->
  <g transform="translate(200,15)">
    <rect width="30" height="16" rx="8" fill="url(#primaryGrad)" opacity="0.8"/>
    <text x="15" y="11" font-family="Arial, sans-serif" font-size="8" fill="#ffffff" text-anchor="middle">v1.0</text>
  </g>
  
  <!-- Decorative elements -->
  <circle cx="220" cy="60" r="2" fill="url(#secondaryGrad)" opacity="0.6"/>
  <circle cx="225" cy="65" r="1.5" fill="url(#primaryGrad)" opacity="0.4"/>
  <circle cx="215" cy="65" r="1" fill="url(#secondaryGrad)" opacity="0.5"/>
</svg>
